<?xml version="1.0" encoding="UTF-8" standalone="no"?>
<!DOCTYPE svg PUBLIC "-//W3C//DTD SVG 1.0//EN" "http://www.w3.org/TR/2001/PR-SVG-20010719/DTD/svg10.dtd">
<svg width="77cm" height="50cm" viewBox="-109 -231 1535 991" xmlns="http://www.w3.org/2000/svg" xmlns:xlink="http://www.w3.org/1999/xlink">
  <text font-size="12.8" style="fill: #000000;text-anchor:start;font-family:sans-serif;font-style:normal;font-weight:normal" x="342.211" y="-138.615">
    <tspan x="342.211" y="-138.615"></tspan>
  </text>
  <g>
    <path style="fill: #ffffff" d="M -94.6468 -30.4239 C -38.9768,-24.9239 -11.1418,-24.9239 44.5282,-30.4239 C 100.198,-35.9239 128.033,-35.9239 183.703,-30.4239 L 183.703,2.57612 C 128.033,-2.92388 100.198,-2.92388 44.5282,2.57612 C -11.1418,8.07612 -38.9768,8.07612 -94.6468,2.57612 L -94.6468,-30.4239z"/>
    <path style="fill: none; fill-opacity:0; stroke-width: 2; stroke: #0000ff" d="M -94.6468 -30.4239 C -38.9768,-24.9239 -11.1418,-24.9239 44.5282,-30.4239 C 100.198,-35.9239 128.033,-35.9239 183.703,-30.4239 L 183.703,2.57612 C 128.033,-2.92388 100.198,-2.92388 44.5282,2.57612 C -11.1418,8.07612 -38.9768,8.07612 -94.6468,2.57612 L -94.6468,-30.4239"/>
    <text font-size="12.8" style="fill: #0000ff;text-anchor:middle;font-family:sans-serif;font-style:normal;font-weight:normal" x="44.5282" y="-9.92388">
      <tspan x="44.5282" y="-9.92388">__import__("drozer.cli.%s" % (sys.argv[1]))</tspan>
    </text>
  </g>
  <text font-size="12.8" style="fill: #0000ff;text-anchor:start;font-family:sans-serif;font-style:normal;font-weight:normal" x="220" y="20">
    <tspan x="220" y="20"></tspan>
  </text>
  <g>
    <line style="fill: none; fill-opacity:0; stroke-width: 2; stroke-dasharray: 4; stroke: #008000" x1="344.117" y1="-11.2636" x2="194.702" y2="-13.7415"/>
    <polygon style="fill: #008000" points="194.785,-18.7408 184.703,-13.9073 194.619,-8.74217 "/>
    <polygon style="fill: none; fill-opacity:0; stroke-width: 2; stroke: #008000" points="194.785,-18.7408 184.703,-13.9073 194.619,-8.74217 "/>
  </g>
  <g>
    <line style="fill: none; fill-opacity:0; stroke-width: 2; stroke: #000000" x1="343.045" y1="-85.7697" x2="345.031" y2="52.2436"/>
    <polygon style="fill: #000000" points="340.031,52.3156 345.175,62.2426 350.03,52.1717 "/>
    <polygon style="fill: none; fill-opacity:0; stroke-width: 2; stroke: #000000" points="340.031,52.3156 345.175,62.2426 350.03,52.1717 "/>
  </g>
  <g>
    <polygon style="fill: #ffffff" points="246.878,64.2426 466.231,64.2426 444.392,124.243 225.04,124.243 "/>
    <polygon style="fill: none; fill-opacity:0; stroke-width: 2; stroke: #000000" points="246.878,64.2426 466.231,64.2426 444.392,124.243 225.04,124.243 "/>
    <text font-size="12.8" style="fill: #000000;text-anchor:middle;font-family:sans-serif;font-style:normal;font-weight:normal" x="345.635" y="98.1426">
      <tspan x="345.635" y="98.1426">drozer/cli/console.py</tspan>
    </text>
  </g>
  <text font-size="12.8" style="fill: #000000;text-anchor:start;font-family:sans-serif;font-style:normal;font-weight:normal" x="345.635" y="94.2426">
    <tspan x="345.635" y="94.2426"></tspan>
  </text>
  <g>
    <path style="fill: #ffffff" d="M -93.4422 174.827 C -45.4422,182.077 -21.4422,182.077 26.5578,174.827 C 74.5578,167.577 98.5578,167.577 146.558,174.827 L 146.558,218.327 C 98.5578,211.077 74.5578,211.077 26.5578,218.327 C -21.4422,225.577 -45.4422,225.577 -93.4422,218.327 L -93.4422,174.827z"/>
    <path style="fill: none; fill-opacity:0; stroke-width: 2; stroke: #0000ff" d="M -93.4422 174.827 C -45.4422,182.077 -21.4422,182.077 26.5578,174.827 C 74.5578,167.577 98.5578,167.577 146.558,174.827 L 146.558,218.327 C 98.5578,211.077 74.5578,211.077 26.5578,218.327 C -21.4422,225.577 -45.4422,225.577 -93.4422,218.327 L -93.4422,174.827"/>
    <text font-size="12.8" style="fill: #0000ff;text-anchor:middle;font-family:sans-serif;font-style:normal;font-weight:normal" x="26.5578" y="200.577">
      <tspan x="26.5578" y="200.577">Console().run(sys.argv[2::])</tspan>
    </text>
  </g>
  <text font-size="12.8" style="fill: #0000ff;text-anchor:start;font-family:sans-serif;font-style:normal;font-weight:normal" x="26.5578" y="203.827">
    <tspan x="26.5578" y="203.827"></tspan>
  </text>
  <g>
    <line style="fill: none; fill-opacity:0; stroke-width: 2; stroke-dasharray: 4; stroke: #008000" x1="343.976" y1="207.889" x2="157.558" y2="207.477"/>
    <polygon style="fill: #008000" points="157.569,202.477 147.558,207.454 157.547,212.476 "/>
    <polygon style="fill: none; fill-opacity:0; stroke-width: 2; stroke: #008000" points="157.569,202.477 147.558,207.454 157.547,212.476 "/>
  </g>
  <g>
    <polygon style="fill: #ffffff" points="187.495,291.553 603.592,291.553 493.601,593.75 77.5044,593.75 "/>
    <polygon style="fill: none; fill-opacity:0; stroke-width: 2; stroke: #000000" points="187.495,291.553 603.592,291.553 493.601,593.75 77.5044,593.75 "/>
    <text font-size="12.8" style="fill: #000000;text-anchor:middle;font-family:sans-serif;font-style:normal;font-weight:normal" x="340.548" y="406.551">
      <tspan x="340.548" y="406.551">drozer/console/console.py</tspan>
      <tspan x="340.548" y="422.551"></tspan>
      <tspan x="340.548" y="438.551"></tspan>
      <tspan x="340.548" y="454.551"></tspan>
      <tspan x="340.548" y="470.551"></tspan>
      <tspan x="340.548" y="486.551"></tspan>
    </text>
  </g>
  <g>
    <polygon style="fill: #ffffff" points="165.039,488.527 444.392,488.527 422.554,548.527 143.201,548.527 "/>
    <polygon style="fill: none; fill-opacity:0; stroke-width: 2; stroke: #000000" points="165.039,488.527 444.392,488.527 422.554,548.527 143.201,548.527 "/>
    <text font-size="12.8" style="fill: #000000;text-anchor:middle;font-family:sans-serif;font-style:normal;font-weight:normal" x="293.797" y="522.427">
      <tspan x="293.797" y="522.427">mwr/common/cli.py</tspan>
    </text>
  </g>
  <text font-size="12.8" style="fill: #000000;text-anchor:start;font-family:sans-serif;font-style:normal;font-weight:normal" x="560" y="220">
    <tspan x="560" y="220"></tspan>
  </text>
  <g>
    <line style="fill: none; fill-opacity:0; stroke-width: 2; stroke: #000000" x1="345.183" y1="125.226" x2="342.929" y2="279.553"/>
    <polygon style="fill: #000000" points="337.93,279.48 342.783,289.552 347.929,279.626 "/>
    <polygon style="fill: none; fill-opacity:0; stroke-width: 2; stroke: #000000" points="337.93,279.48 342.783,289.552 347.929,279.626 "/>
  </g>
  <g>
    <path style="fill: #ffffff" d="M -10.3381 421.49 C 25.6619,429.24 43.6619,429.24 79.6619,421.49 C 115.662,413.74 133.662,413.74 169.662,421.49 L 169.662,467.99 C 133.662,460.24 115.662,460.24 79.6619,467.99 C 43.6619,475.74 25.6619,475.74 -10.3381,467.99 L -10.3381,421.49z"/>
    <path style="fill: none; fill-opacity:0; stroke-width: 2; stroke: #0000ff" d="M -10.3381 421.49 C 25.6619,429.24 43.6619,429.24 79.6619,421.49 C 115.662,413.74 133.662,413.74 169.662,421.49 L 169.662,467.99 C 133.662,460.24 115.662,460.24 79.6619,467.99 C 43.6619,475.74 25.6619,475.74 -10.3381,467.99 L -10.3381,421.49"/>
    <text font-size="12.8" style="fill: #0000ff;text-anchor:middle;font-family:sans-serif;font-style:normal;font-weight:normal" x="79.6619" y="448.74">
      <tspan x="79.6619" y="448.74">cli.Base.__init__(self)</tspan>
    </text>
  </g>
  <g>
    <line style="fill: none; fill-opacity:0; stroke-width: 2; stroke-dasharray: 4; stroke: #008000" x1="322.632" y1="465.589" x2="180.642" y2="457.027"/>
    <polygon style="fill: #008000" points="180.943,452.036 170.66,456.425 180.341,462.018 "/>
    <polygon style="fill: none; fill-opacity:0; stroke-width: 2; stroke: #008000" points="180.943,452.036 170.66,456.425 180.341,462.018 "/>
  </g>
  <g>
    <line style="fill: none; fill-opacity:0; stroke-width: 2; stroke-dasharray: 4; stroke: #008000" x1="234.433" y1="549.532" x2="184.663" y2="575.527"/>
    <polygon style="fill: #008000" points="182.348,571.095 175.799,580.156 186.977,579.959 "/>
    <polygon style="fill: none; fill-opacity:0; stroke-width: 2; stroke: #008000" points="182.348,571.095 175.799,580.156 186.977,579.959 "/>
  </g>
  <text font-size="12.8" style="fill: #008000;text-anchor:start;font-family:sans-serif;font-style:normal;font-weight:normal" x="293.797" y="518.527">
    <tspan x="293.797" y="518.527"></tspan>
  </text>
  <g>
    <path style="fill: #ffffff" d="M -107.238 583.022 C -49.8276,600.522 -21.1226,600.522 36.2874,583.022 C 93.6974,565.522 122.402,565.522 179.812,583.022 L 179.812,688.022 C 122.402,670.522 93.6974,670.522 36.2874,688.022 C -21.1226,705.522 -49.8276,705.522 -107.238,688.022 L -107.238,583.022z"/>
    <path style="fill: none; fill-opacity:0; stroke-width: 2; stroke: #0000ff" d="M -107.238 583.022 C -49.8276,600.522 -21.1226,600.522 36.2874,583.022 C 93.6974,565.522 122.402,565.522 179.812,583.022 L 179.812,688.022 C 122.402,670.522 93.6974,670.522 36.2874,688.022 C -21.1226,705.522 -49.8276,705.522 -107.238,688.022 L -107.238,583.022"/>
    <text font-size="12.8" style="fill: #0000ff;text-anchor:middle;font-family:sans-serif;font-style:normal;font-weight:normal" x="36.2874" y="615.522">
      <tspan x="36.2874" y="615.522">def run(self, argv=None):</tspan>
      <tspan x="36.2874" y="631.522">self.__invokeCommand(arguments)</tspan>
      <tspan x="36.2874" y="647.522">def __invokeCommand</tspan>
      <tspan x="36.2874" y="663.522">getattr(self, "do_" + command)(arguments)</tspan>
    </text>
  </g>
  <text font-size="12.8" style="fill: #0000ff;text-anchor:start;font-family:sans-serif;font-style:normal;font-weight:normal" x="36.2874" y="653.022">
    <tspan x="36.2874" y="653.022"></tspan>
  </text>
  <g>
    <line style="fill: none; fill-opacity:0; stroke-width: 2; stroke: #000000" x1="340.548" y1="442.651" x2="311.487" y2="479.858"/>
    <polygon style="fill: #000000" points="307.546,476.78 305.331,487.739 315.427,482.936 "/>
    <polygon style="fill: none; fill-opacity:0; stroke-width: 2; stroke: #000000" points="307.546,476.78 305.331,487.739 315.427,482.936 "/>
  </g>
  <g>
    <polyline style="fill: none; fill-opacity:0; stroke-width: 2; stroke: #000000" points="282.877,548.527 282.877,697.98 704.001,697.98 704.001,442.651 559.597,442.651 "/>
    <polygon style="fill: #000000" points="559.597,437.651 549.597,442.651 559.597,447.651 "/>
    <polygon style="fill: none; fill-opacity:0; stroke-width: 2; stroke: #000000" points="559.597,437.651 549.597,442.651 559.597,447.651 "/>
  </g>
  <g>
    <line style="fill: none; fill-opacity:0; stroke-width: 2; stroke: #000000" x1="548.597" y1="442.651" x2="976.383" y2="260.288"/>
    <polygon style="fill: #000000" points="983.283,257.347 976.044,265.868 976.383,260.288 972.123,256.669 "/>
    <polygon style="fill: none; fill-opacity:0; stroke-width: 2; stroke: #000000" points="983.283,257.347 976.044,265.868 976.383,260.288 972.123,256.669 "/>
  </g>
  <g>
    <polygon style="fill: #ffffff" points="1029.06,136.345 1400.37,136.345 1312.92,376.595 941.618,376.595 "/>
    <polygon style="fill: none; fill-opacity:0; stroke-width: 2; stroke: #000000" points="1029.06,136.345 1400.37,136.345 1312.92,376.595 941.618,376.595 "/>
    <text font-size="12.8" style="fill: #000000;text-anchor:middle;font-family:sans-serif;font-style:normal;font-weight:normal" x="1170.99" y="180.37">
      <tspan x="1170.99" y="180.37">drozer/console/session.py</tspan>
      <tspan x="1170.99" y="196.37"></tspan>
      <tspan x="1170.99" y="212.37"></tspan>
      <tspan x="1170.99" y="228.37"></tspan>
      <tspan x="1170.99" y="244.37"></tspan>
      <tspan x="1170.99" y="260.37"></tspan>
      <tspan x="1170.99" y="276.37"></tspan>
      <tspan x="1170.99" y="292.37"></tspan>
      <tspan x="1170.99" y="308.37"></tspan>
      <tspan x="1170.99" y="324.37"></tspan>
      <tspan x="1170.99" y="340.37"></tspan>
    </text>
  </g>
  <text font-size="12.8" style="fill: #000000;text-anchor:start;font-family:sans-serif;font-style:normal;font-weight:normal" x="1170.99" y="256.47">
    <tspan x="1170.99" y="256.47"></tspan>
  </text>
  <g>
    <polygon style="fill: #ffffff" points="1056.59,221.81 1299.67,221.81 1256.26,341.06 1013.19,341.06 "/>
    <polygon style="fill: none; fill-opacity:0; stroke-width: 2; stroke: #000000" points="1056.59,221.81 1299.67,221.81 1256.26,341.06 1013.19,341.06 "/>
    <text font-size="12.8" style="fill: #000000;text-anchor:middle;font-family:sans-serif;font-style:normal;font-weight:normal" x="1156.43" y="285.335">
      <tspan x="1156.43" y="285.335">mwr/common/cmd_ext.py</tspan>
    </text>
  </g>
  <text font-size="12.8" style="fill: #000000;text-anchor:start;font-family:sans-serif;font-style:normal;font-weight:normal" x="1156.43" y="281.435">
    <tspan x="1156.43" y="281.435"></tspan>
  </text>
  <g>
    <line style="fill: none; fill-opacity:0; stroke-width: 2; stroke-dasharray: 4; stroke: #008000" x1="766.968" y1="349.561" x2="825.526" y2="162.735"/>
    <polygon style="fill: #008000" points="827.77,155.579 829.55,166.616 825.526,162.735 820.008,163.625 "/>
    <polygon style="fill: none; fill-opacity:0; stroke-width: 2; stroke: #008000" points="827.77,155.579 829.55,166.616 825.526,162.735 820.008,163.625 "/>
  </g>
  <g>
    <path style="fill: #ffffff" d="M 713.096 94.2056 C 761.896,103.706 786.296,103.706 835.096,94.2056 C 883.896,84.7056 908.296,84.7056 957.096,94.2056 L 957.096,151.206 C 908.296,141.706 883.896,141.706 835.096,151.206 C 786.296,160.706 761.896,160.706 713.096,151.206 L 713.096,94.2056z"/>
    <path style="fill: none; fill-opacity:0; stroke-width: 2; stroke: #0000ff" d="M 713.096 94.2056 C 761.896,103.706 786.296,103.706 835.096,94.2056 C 883.896,84.7056 908.296,84.7056 957.096,94.2056 L 957.096,151.206 C 908.296,141.706 883.896,141.706 835.096,151.206 C 786.296,160.706 761.896,160.706 713.096,151.206 L 713.096,94.2056"/>
    <text font-size="12.8" style="fill: #0000ff;text-anchor:middle;font-family:sans-serif;font-style:normal;font-weight:normal" x="835.096" y="126.706">
      <tspan x="835.096" y="126.706">session.cmdloop()</tspan>
    </text>
  </g>
  <text font-size="12.7998" style="fill: #008000;text-anchor:start;font-family:sans-serif;font-style:normal;font-weight:normal" x="1170.99" y="256.47">
    <tspan x="1170.99" y="256.47"></tspan>
  </text>
  <text font-size="12.7998" style="fill: #008000;text-anchor:start;font-family:sans-serif;font-style:normal;font-weight:normal" x="340.548" y="442.651">
    <tspan x="340.548" y="442.651"></tspan>
  </text>
  <text font-size="12.7998" style="fill: #008000;text-anchor:start;font-family:sans-serif;font-style:normal;font-weight:normal" x="340.548" y="442.651">
    <tspan x="340.548" y="442.651"></tspan>
  </text>
  <g>
    <polyline style="fill: none; fill-opacity:0; stroke-width: 2; stroke: #000000" points="1156.43,342.057 1156.43,443.173 1425.12,443.173 1425.12,281.435 1288.33,281.435 "/>
    <polygon style="fill: #000000" points="1280.83,281.435 1290.83,276.435 1288.33,281.435 1290.83,286.435 "/>
    <polygon style="fill: none; fill-opacity:0; stroke-width: 2; stroke: #000000" points="1280.83,281.435 1290.83,276.435 1288.33,281.435 1290.83,286.435 "/>
  </g>
  <g>
    <line style="fill: none; fill-opacity:0; stroke-width: 2; stroke: #000000" x1="1156.17" y1="342.05" x2="1154.89" y2="637.567"/>
    <polygon style="fill: #000000" points="1154.85,645.067 1149.9,635.046 1154.89,637.567 1159.9,635.089 "/>
    <polygon style="fill: none; fill-opacity:0; stroke-width: 2; stroke: #000000" points="1154.85,645.067 1149.9,635.046 1154.89,637.567 1159.9,635.089 "/>
  </g>
  <g>
    <line style="fill: none; fill-opacity:0; stroke-width: 2; stroke-dasharray: 4; stroke: #008000" x1="1155.51" y1="494.677" x2="981.858" y2="494.764"/>
    <polygon style="fill: #008000" points="974.358,494.767 984.356,489.762 981.858,494.764 984.361,499.762 "/>
    <polygon style="fill: none; fill-opacity:0; stroke-width: 2; stroke: #008000" points="974.358,494.767 984.356,489.762 981.858,494.764 984.361,499.762 "/>
  </g>
  <g>
    <path style="fill: #ffffff" d="M 856.122 465.298 C 879.122,472.673 890.622,472.673 913.622,465.298 C 936.622,457.923 948.122,457.923 971.122,465.298 L 971.122,509.548 C 948.122,502.173 936.622,502.173 913.622,509.548 C 890.622,516.923 879.122,516.923 856.122,509.548 L 856.122,465.298z"/>
    <path style="fill: none; fill-opacity:0; stroke-width: 2; stroke: #0000ff" d="M 856.122 465.298 C 879.122,472.673 890.622,472.673 913.622,465.298 C 936.622,457.923 948.122,457.923 971.122,465.298 L 971.122,509.548 C 948.122,502.173 936.622,502.173 913.622,509.548 C 890.622,516.923 879.122,516.923 856.122,509.548 L 856.122,465.298"/>
    <text font-size="12.7998" style="fill: #0000ff;text-anchor:middle;font-family:sans-serif;font-style:normal;font-weight:normal" x="913.622" y="491.423">
      <tspan x="913.622" y="491.423">$ exit</tspan>
    </text>
  </g>
  <text font-size="12.7998" style="fill: #0000ff;text-anchor:start;font-family:sans-serif;font-style:normal;font-weight:normal" x="913.622" y="494.798">
    <tspan x="913.622" y="494.798"></tspan>
  </text>
  <text font-size="12.7998" style="fill: #000000;text-anchor:start;font-family:sans-serif;font-style:normal;font-weight:normal" x="1156.12" y="697.869">
    <tspan x="1156.12" y="697.869"></tspan>
  </text>
  <g>
    <polygon style="fill: #ff0000" points="1154.6,648.18 1261.71,703.233 1154.6,758.287 1047.49,703.233 "/>
    <polygon style="fill: none; fill-opacity:0; stroke-width: 2; stroke: #000000" points="1154.6,648.18 1261.71,703.233 1154.6,758.287 1047.49,703.233 "/>
    <text font-size="12.7998" style="fill: #000000;text-anchor:middle;font-family:sans-serif;font-style:normal;font-weight:normal" x="1154.6" y="707.133">
      <tspan x="1154.6" y="707.133">End</tspan>
    </text>
  </g>
  <text font-size="12.7998" style="fill: #000000;text-anchor:start;font-family:sans-serif;font-style:normal;font-weight:normal" x="1154.6" y="703.233">
    <tspan x="1154.6" y="703.233"></tspan>
  </text>
  <g>
    <polygon style="fill: #008000" points="342.266,-193.477 447.372,-139.924 342.266,-86.3702 237.159,-139.924 "/>
    <polygon style="fill: none; fill-opacity:0; stroke-width: 2; stroke: #000000" points="342.266,-193.477 447.372,-139.924 342.266,-86.3702 237.159,-139.924 "/>
    <text font-size="12.7998" style="fill: #000000;text-anchor:middle;font-family:sans-serif;font-style:normal;font-weight:normal" x="342.266" y="-136.024">
      <tspan x="342.266" y="-136.024">Begin</tspan>
    </text>
  </g>
  <text font-size="12.7998" style="fill: #000000;text-anchor:start;font-family:sans-serif;font-style:normal;font-weight:normal" x="342.266" y="-139.924">
    <tspan x="342.266" y="-139.924"></tspan>
  </text>
  <g>
    <path style="fill: #ffffff" d="M -10.2149 -223.243 C 27.4032,-215.745 46.2122,-215.745 83.8303,-223.243 C 121.448,-230.741 140.257,-230.741 177.875,-223.243 L 177.875,-178.256 C 140.257,-185.754 121.448,-185.754 83.8303,-178.256 C 46.2122,-170.758 27.4032,-170.758 -10.2149,-178.256 L -10.2149,-223.243z"/>
    <path style="fill: none; fill-opacity:0; stroke-width: 2; stroke: #0000ff" d="M -10.2149 -223.243 C 27.4032,-215.745 46.2122,-215.745 83.8303,-223.243 C 121.448,-230.741 140.257,-230.741 177.875,-223.243 L 177.875,-178.256 C 140.257,-185.754 121.448,-185.754 83.8303,-178.256 C 46.2122,-170.758 27.4032,-170.758 -10.2149,-178.256 L -10.2149,-223.243"/>
    <text font-size="12.7998" style="fill: #0000ff;text-anchor:middle;font-family:sans-serif;font-style:normal;font-weight:normal" x="83.8303" y="-196.75">
      <tspan x="83.8303" y="-196.75">$ drozer console connect</tspan>
    </text>
  </g>
  <g>
    <polyline style="fill: none; fill-opacity:0; stroke-width: 2; stroke-dasharray: 4; stroke: #008000" points="83.8303,-193.252 84.5374,-193.252 84.5374,-139.924 225.159,-139.924 "/>
    <polygon style="fill: #008000" points="225.159,-134.924 235.159,-139.924 225.159,-144.924 "/>
    <polygon style="fill: none; fill-opacity:0; stroke-width: 2; stroke: #008000" points="225.159,-134.924 235.159,-139.924 225.159,-144.924 "/>
  </g>
</svg>
